<svg width="341" height="67" viewBox="0 0 341 67" fill="none" xmlns="http://www.w3.org/2000/svg">
<path d="M104.702 13.6546H92.8901L79.219 30.8654H78.6966L65.3048 13.6546H52.9098L73.2158 39.7862L52.9098 65.6024H64.7215L104.702 13.6546Z" fill="#FF6022"/>
<path d="M84.4197 54.5208L92.8901 65.6023H104.702L90.4107 46.7894L84.4197 54.5208Z" fill="#FF6022"/>
<path d="M126.418 0V13.6545H140.709V21.7259H126.418V52.1541C126.418 61.597 138.229 57.8101 140.709 56.7057V64.3642C137.804 65.8814 116.988 72.4234 116.988 52.9794V21.7259H109.733L126.418 0Z" fill="#03001E"/>
<path d="M233.137 12.8048V20.1479C228.701 20.1479 222.528 19.9416 215.772 30.8045V65.6023H206.341V13.6545H215.772V20.4514C220.17 13.6545 226.939 12.8048 233.137 12.8048Z" fill="#03001E"/>
<path d="M268.013 12.8048V20.1479C263.577 20.1479 257.405 19.9416 250.648 30.8045V65.6023H241.218V13.6545H250.648V20.4514C255.047 13.6545 261.816 12.8048 268.013 12.8048Z" fill="#03001E"/>
<path d="M271.343 39.2278C271.343 31.0229 273.761 24.3959 278.597 19.3589C283.434 14.3219 289.838 11.8094 297.822 11.8094C305.806 11.8094 312.222 14.334 317.095 19.3589C321.968 24.3959 324.398 31.0107 324.398 39.2278C324.398 47.4447 321.968 54.0595 317.095 59.0965C312.222 64.1335 305.806 66.646 297.822 66.646C289.838 66.646 283.434 64.1335 278.597 59.0965C273.761 54.0595 271.343 47.4447 271.343 39.2278ZM285.901 53.3556C289.315 56.4991 293.301 58.0649 297.871 58.0649C302.44 58.0649 306.413 56.4991 309.84 53.3556C313.267 50.212 314.968 45.4906 314.968 39.1792C314.968 32.8678 313.255 28.1585 309.84 25.0513C306.426 21.9441 302.428 20.3906 297.871 20.3906C293.313 20.3906 289.328 21.9441 285.901 25.0513C282.486 28.1585 280.773 32.8678 280.773 39.1792C280.773 45.4906 282.486 50.212 285.901 53.3556Z" fill="#03001E"/>
<path d="M49.5317 39.2275V42.541H9.53934C10.0862 47.3716 11.8847 51.1342 14.9227 53.8166C17.9607 56.511 22.5663 57.8583 28.7517 57.8583C34.9371 57.8583 40.6485 56.1348 45.8982 52.6878H46.4208V61.7908C40.6243 65.0315 33.7947 66.6578 25.9568 66.6578C18.1187 66.6578 11.8361 64.2668 7.09682 59.4725C2.36965 54.6783 0 48.197 0 40.0164C0 31.8359 2.1023 25.0997 6.31907 19.7835C10.5358 14.4673 16.6726 11.8214 24.7537 11.8214C32.8347 11.8214 38.9837 14.4794 43.1883 19.7835C47.405 25.0997 49.5073 31.581 49.5073 39.2396M9.51507 34.8945H40.0774C39.7979 29.9303 38.1209 26.1677 35.0586 23.6188C31.9842 21.0701 28.5451 19.7835 24.7537 19.7835C20.9623 19.7835 17.5354 21.0579 14.4974 23.6188C11.4594 26.1677 9.7945 29.9303 9.52716 34.8945" fill="#03001E"/>
<path d="M197.519 39.2279V42.5414H157.527C158.074 47.3721 159.872 51.1347 162.91 53.817C165.948 56.5115 170.554 57.8587 176.739 57.8587C182.925 57.8587 188.636 56.1352 193.885 52.6882H194.396V61.7912C188.6 65.0319 181.77 66.6583 173.932 66.6583C166.094 66.6583 159.811 64.2672 155.072 59.473C150.345 54.6787 147.975 48.1974 147.975 40.0169C147.975 31.8363 150.078 25.1 154.294 19.7839C158.511 14.4678 164.66 11.8218 172.729 11.8218C180.798 11.8218 186.959 14.4799 191.176 19.7839C195.392 25.1 197.494 31.5814 197.494 39.24M157.502 34.8949H188.065C187.785 29.9307 186.109 26.1681 183.034 23.6193C179.96 21.0705 176.52 19.7839 172.729 19.7839C168.938 19.7839 165.511 21.0583 162.473 23.6193C159.434 26.1681 157.782 29.9307 157.502 34.8949Z" fill="#03001E"/>
<path d="M334.281 11.7586C335.211 11.7586 336.082 11.932 336.893 12.2791C337.705 12.6263 338.419 13.1077 339.035 13.7235C339.651 14.3394 340.132 15.0542 340.479 15.8661C340.826 16.6778 341 17.5481 341 18.4774C341 19.4068 340.827 20.2778 340.479 21.0897C340.132 21.9015 339.651 22.6154 339.035 23.2313C338.419 23.8472 337.705 24.3285 336.893 24.6756C336.082 25.0228 335.211 25.1961 334.281 25.1961C333.352 25.1961 332.482 25.0227 331.67 24.6756C330.858 24.3285 330.143 23.8472 329.527 23.2313C328.911 22.6154 328.43 21.9015 328.083 21.0897C327.736 20.2778 327.562 19.4068 327.562 18.4774C327.562 17.5482 327.736 16.6777 328.083 15.8661C328.43 15.0542 328.911 14.3394 329.527 13.7235C330.143 13.1076 330.858 12.6263 331.67 12.2791C332.481 11.9322 333.352 11.7587 334.281 11.7586ZM334.281 13.4217C333.352 13.4218 332.503 13.6511 331.736 14.1102C330.969 14.5637 330.359 15.1742 329.905 15.9413C329.452 16.7026 329.225 17.5481 329.225 18.4774C329.225 19.4067 329.452 20.2553 329.905 21.0223C330.359 21.7837 330.969 22.3942 331.736 22.8534C332.503 23.3069 333.352 23.534 334.281 23.534C335.21 23.534 336.056 23.3067 336.817 22.8534C337.584 22.3943 338.195 21.7837 338.648 21.0223C339.102 20.2552 339.329 19.4068 339.329 18.4774C339.329 17.548 339.102 16.7027 338.648 15.9413C338.195 15.1742 337.584 14.5637 336.817 14.1102C336.056 13.6512 335.21 13.4217 334.281 13.4217ZM335.004 15.3026C335.306 15.3026 335.609 15.379 335.911 15.5301C336.219 15.6757 336.473 15.8998 336.675 16.202C336.882 16.4987 336.985 16.8682 336.985 17.3104C336.985 17.758 336.879 18.1386 336.667 18.452C336.479 18.7281 336.25 18.9455 335.98 19.1043L337.221 21.5008H335.634L334.595 19.41H333.349V21.5008H331.904V15.3026H335.004ZM333.349 18.3436H334.525C334.727 18.3435 334.925 18.2562 335.121 18.0829C335.322 17.9093 335.424 17.6518 335.424 17.3104C335.424 16.9521 335.323 16.7055 335.121 16.5711C334.925 16.4368 334.734 16.37 334.55 16.37H333.349V18.3436Z" fill="#03001E"/>
</svg>
