<?xml version="1.0" encoding="UTF-8"?> <svg xmlns="http://www.w3.org/2000/svg" width="30" height="30" viewBox="0 0 30 30" fill="none"><mask id="mask0_1147_114834" style="mask-type:alpha" maskUnits="userSpaceOnUse" x="1" y="1" width="28" height="28"><path fill-rule="evenodd" clip-rule="evenodd" d="M20.7392 28.528C21.1712 28.6963 21.6638 28.6855 22.0998 28.4757L27.7469 25.7584C28.3403 25.4729 28.7176 24.8723 28.7176 24.2135V5.78863C28.7176 5.12979 28.3403 4.52924 27.7469 4.2437L22.0998 1.52635C21.5276 1.251 20.8579 1.31844 20.3556 1.68357C20.2839 1.73573 20.2156 1.79396 20.1514 1.85814L9.34074 11.7209L4.63183 8.14648C4.19348 7.81373 3.58034 7.841 3.17322 8.21133L1.66292 9.58517C1.16493 10.0382 1.16436 10.8216 1.66169 11.2753L5.74541 15.001L1.66169 18.7267C1.16436 19.1804 1.16493 19.9638 1.66292 20.4168L3.17322 21.7907C3.58034 22.161 4.19348 22.1883 4.63183 21.8555L9.34074 18.2811L20.1514 28.1439C20.3224 28.315 20.5232 28.4438 20.7392 28.528ZM21.8647 8.7744L13.6619 15.001L21.8647 21.2276V8.7744Z" fill="white"></path></mask><g mask="url(#mask0_1147_114834)"><g filter="url(#filter0_d_1147_114834)"><path d="M27.7481 4.24771L22.0966 1.52661C21.4424 1.21165 20.6606 1.34451 20.1473 1.85789L1.64629 18.7264C1.14866 19.1801 1.14923 19.9636 1.64752 20.4166L3.15874 21.7904C3.56611 22.1608 4.17962 22.188 4.61824 21.8553L26.8977 4.95363C27.6451 4.38661 28.7187 4.91971 28.7187 5.85789V5.79228C28.7187 5.13373 28.3414 4.5334 27.7481 4.24771Z" fill="#0065A9"></path></g><g filter="url(#filter1_d_1147_114834)"><path d="M27.7481 25.752L22.0966 28.4731C21.4424 28.7881 20.6606 28.6552 20.1473 28.1419L1.64629 11.2733C1.14866 10.8196 1.14923 10.0362 1.64752 9.58316L3.15874 8.20933C3.56611 7.83899 4.17962 7.81172 4.61824 8.14447L26.8977 25.0461C27.6451 25.6131 28.7187 25.08 28.7187 24.1419V24.2075C28.7187 24.866 28.3414 25.4664 27.7481 25.752Z" fill="#007ACC"></path></g><g filter="url(#filter2_d_1147_114834)"><path d="M22.0941 28.4757C21.4397 28.7903 20.658 28.6573 20.1445 28.1439C20.7771 28.7765 21.8588 28.3284 21.8588 27.4338V2.56822C21.8588 1.67357 20.7771 1.22553 20.1445 1.85814C20.658 1.34471 21.4397 1.21166 22.0941 1.52635L27.7446 4.24371C28.3384 4.52924 28.716 5.12979 28.716 5.78863V24.2135C28.716 24.8723 28.3384 25.4729 27.7446 25.7584L22.0941 28.4757Z" fill="#1F9CF0"></path></g><g style="mix-blend-mode:overlay" opacity="0.25"><path fill-rule="evenodd" clip-rule="evenodd" d="M20.7236 28.528C21.1556 28.6963 21.6482 28.6855 22.0842 28.4757L27.7313 25.7584C28.3247 25.4729 28.702 24.8723 28.702 24.2135V5.78863C28.702 5.12979 28.3247 4.52924 27.7313 4.2437L22.0842 1.52635C21.5119 1.251 20.8422 1.31844 20.34 1.68357C20.2683 1.73573 20.1999 1.79396 20.1358 1.85814L9.32511 11.7209L4.61621 8.14648C4.17786 7.81373 3.56472 7.841 3.1576 8.21133L1.6473 9.58517C1.14931 10.0382 1.14874 10.8216 1.64606 11.2753L5.72979 15.001L1.64606 18.7267C1.14874 19.1804 1.14931 19.9638 1.6473 20.4168L3.1576 21.7907C3.56472 22.161 4.17786 22.1883 4.61621 21.8555L9.32511 18.2811L20.1358 28.1439C20.3068 28.315 20.5076 28.4438 20.7236 28.528ZM21.849 8.7744L13.6462 15.001L21.849 21.2276V8.7744Z" fill="url(#paint0_linear_1147_114834)"></path></g></g><defs><filter id="filter0_d_1147_114834" x="-1.46942" y="1.35742" width="32.931" height="26.2162" filterUnits="userSpaceOnUse" color-interpolation-filters="sRGB"><feFlood flood-opacity="0" result="BackgroundImageFix"></feFlood><feColorMatrix in="SourceAlpha" type="matrix" values="0 0 0 0 0 0 0 0 0 0 0 0 0 0 0 0 0 0 127 0" result="hardAlpha"></feColorMatrix><feOffset dy="2.74286"></feOffset><feGaussianBlur stdDeviation="1.37143"></feGaussianBlur><feColorMatrix type="matrix" values="0 0 0 0 0 0 0 0 0 0 0 0 0 0 0 0 0 0 0.25 0"></feColorMatrix><feBlend mode="normal" in2="BackgroundImageFix" result="effect1_dropShadow_1147_114834"></feBlend><feBlend mode="normal" in="SourceGraphic" in2="effect1_dropShadow_1147_114834" result="shape"></feBlend></filter><filter id="filter1_d_1147_114834" x="-4.21228" y="2.4264" width="38.4167" height="31.7019" filterUnits="userSpaceOnUse" color-interpolation-filters="sRGB"><feFlood flood-opacity="0" result="BackgroundImageFix"></feFlood><feColorMatrix in="SourceAlpha" type="matrix" values="0 0 0 0 0 0 0 0 0 0 0 0 0 0 0 0 0 0 127 0" result="hardAlpha"></feColorMatrix><feOffset></feOffset><feGaussianBlur stdDeviation="2.74286"></feGaussianBlur><feColorMatrix type="matrix" values="0 0 0 0 0 0 0 0 0 0 0 0 0 0 0 0 0 0 0.25 0"></feColorMatrix><feBlend mode="overlay" in2="BackgroundImageFix" result="effect1_dropShadow_1147_114834"></feBlend><feBlend mode="normal" in="SourceGraphic" in2="effect1_dropShadow_1147_114834" result="shape"></feBlend></filter><filter id="filter2_d_1147_114834" x="14.6588" y="-4.12829" width="19.5417" height="38.2585" filterUnits="userSpaceOnUse" color-interpolation-filters="sRGB"><feFlood flood-opacity="0" result="BackgroundImageFix"></feFlood><feColorMatrix in="SourceAlpha" type="matrix" values="0 0 0 0 0 0 0 0 0 0 0 0 0 0 0 0 0 0 127 0" result="hardAlpha"></feColorMatrix><feOffset></feOffset><feGaussianBlur stdDeviation="2.74286"></feGaussianBlur><feColorMatrix type="matrix" values="0 0 0 0 0 0 0 0 0 0 0 0 0 0 0 0 0 0 0.25 0"></feColorMatrix><feBlend mode="overlay" in2="BackgroundImageFix" result="effect1_dropShadow_1147_114834"></feBlend><feBlend mode="normal" in="SourceGraphic" in2="effect1_dropShadow_1147_114834" result="shape"></feBlend></filter><linearGradient id="paint0_linear_1147_114834" x1="14.9877" y1="1.35742" x2="14.9877" y2="28.6446" gradientUnits="userSpaceOnUse"><stop stop-color="white"></stop><stop offset="1" stop-color="white" stop-opacity="0"></stop></linearGradient></defs></svg> 